<svg xmlns="http://www.w3.org/2000/svg" xmlns:xlink="http://www.w3.org/1999/xlink" version="1.1" x="0px" y="0px" viewBox="0 0 64 80" enable-background="new 0 0 64 64" xml:space="preserve"><g><path d="M10.302,29.014c0,0.001,0.001,0.002,0.001,0.003C10.303,29.016,10.303,29.015,10.302,29.014z M10.292,28.977L10.292,28.977   L10.292,28.977z M24.28,58.273c-0.429-0.498-1.189-1.121-2.835-0.795c-0.508,0.122-2.197,0.495-4.129,0.585   c-2.746,0.128-4.8-0.369-6.104-1.479c-1.132-0.964-1.686-2.375-1.56-3.971l0.024-0.293l0.096-0.265   c0.173-0.515,0.366-1.72-0.117-2.241c-0.809-0.765-1.362-2.094-1.005-3.55c-0.582-0.912-0.832-1.846-0.728-2.732   c0.038-0.316,0.119-0.618,0.24-0.902c-1.201-0.505-2.384-1.309-2.907-2.577c-0.279-0.676-0.582-2.044,0.521-3.62L5.91,36.26   c1.104-1.275,2.261-2.868,3.096-4.258c1.289-2.145,1.292-2.916,1.286-3.014c-0.446-1.191-0.943-2.532-0.765-4.062   c0.405-4.64,2.924-15.798,17.477-19.688l0.276-0.074c0.112-0.034,0.25-0.071,0.409-0.097c5.234-1.266,10.547-0.889,15.367,1.091   c4.51,1.852,8.41,4.999,11.277,9.103c2.858,4.091,4.468,8.817,4.655,13.668c0.202,5.22-1.287,10.351-4.305,14.839   c-0.892,1.399-1.961,2.885-3.091,4.298l-0.095,0.12l-0.092,0.087c-0.157,0.163-2.292,2.531,0.161,7.912   c0.554,1.216,0.121,2.655-1.015,3.361l0,0l-0.016-0.025c-2.089-3.502-2.928-6.675-2.496-9.43c0.348-2.214,1.418-3.368,1.634-3.581   c1.076-1.346,2.089-2.756,2.933-4.082l0.018-0.026c2.73-4.053,4.076-8.679,3.894-13.376c-0.169-4.376-1.626-8.646-4.213-12.348   c-2.594-3.713-6.118-6.559-10.19-8.231c-4.351-1.787-9.156-2.119-13.898-0.963l-0.066,0.017l-0.067,0.009   c-0.033,0.004-0.107,0.029-0.167,0.048l-0.243,0.081h-0.073c-13.028,3.501-15.26,13.418-15.615,17.522L11.984,25.2   c-0.115,0.953,0.248,1.92,0.631,2.943c0.257,0.672,0.396,1.92-1.36,4.913c-0.912,1.555-2.202,3.345-3.454,4.796l-0.018,0.023   c-0.317,0.463-0.397,0.867-0.244,1.237c0.258,0.627,1.241,1.223,2.629,1.595l0.917,0.245v1.97l-0.416,0.369   c-0.172,0.153-0.268,0.327-0.293,0.533c-0.046,0.388,0.177,0.923,0.611,1.465l0.471,0.59l-0.308,0.688   c-0.391,0.871,0.146,1.4,0.208,1.457l0.047,0.046c1.665,1.7,0.825,4.426,0.708,4.777c-0.054,0.79,0.182,1.414,0.701,1.856   c1.676,1.427,6.014,0.864,8.074,0.367l0.044-0.011c2.704-0.548,4.331,0.569,5.221,1.601c0.623,0.724,0.982,1.513,1.164,2.008   c0.093,0.253-0.053,0.531-0.315,0.597l-1.528,0.387c-0.22,0.056-0.446-0.059-0.532-0.269C24.822,59.085,24.61,58.656,24.28,58.273z   "/><g><path d="M40.483,22.096c-0.293-0.88-0.587-1.761-1.027-2.494l0.88-2.054l-2.935-2.935l-2.054,0.88    c-0.88-0.44-1.614-0.734-2.494-1.027l-0.734-2.054h-4.255l-0.734,2.054c-0.88,0.293-1.761,0.587-2.494,1.027l-2.054-0.88    l-2.935,2.935l0.88,2.054c-0.44,0.734-0.734,1.614-1.027,2.494l-2.054,0.734v4.255l2.054,0.734    c0.293,0.88,0.587,1.761,1.027,2.494l-0.88,2.054l2.935,2.935l2.054-0.88c0.734,0.44,1.614,0.734,2.494,1.027l0.734,2.054h4.255    l0.734-2.054c0.88-0.293,1.761-0.587,2.494-1.027l2.054,0.88l2.935-2.935l-0.88-2.054c0.44-0.734,0.734-1.614,1.027-2.494    l2.054-0.734v-4.255L40.483,22.096z M29.918,30.166c-2.788,0-5.136-2.348-5.136-5.136s2.348-5.136,5.136-5.136    s5.136,2.348,5.136,5.136S32.706,30.166,29.918,30.166z"/><path d="M41.657,41.904c0-0.44,0-0.88,0-1.174l0.734-0.734l-0.734-1.761H40.63c-0.293-0.293-0.587-0.587-0.88-0.88v-1.027    l-1.761-0.734l-0.734,0.734c-0.44,0-0.88,0-1.174,0l-0.734-0.734l-1.761,0.734v1.027c-0.293,0.293-0.587,0.587-0.88,0.88h-1.027    l-0.734,1.761l0.734,0.734c0,0.44,0,0.88,0,1.174l-0.587,0.734l0.734,1.761h1.027c0.293,0.293,0.587,0.587,0.88,0.88v1.027    l1.761,0.734l0.734-0.734c0.44,0,0.88,0,1.174,0l0.734,0.734l1.761-0.734v-1.027c0.293-0.293,0.587-0.587,0.88-0.88h1.027    l0.734-1.761L41.657,41.904z M35.787,43.518c-1.174-0.44-1.761-1.907-1.321-3.081c0.44-1.174,1.907-1.761,3.081-1.321    s1.761,1.907,1.321,3.081C38.429,43.372,37.108,43.958,35.787,43.518z"/><path d="M51.047,32.514c0-0.44,0-0.88,0-1.174l0.734-0.734l-0.734-1.761H50.02c-0.293-0.293-0.587-0.587-0.88-0.88v-1.027    l-1.761-0.734l-0.734,0.734c-0.44,0-0.88,0-1.174,0l-0.734-0.587l-1.761,0.734v1.027c-0.293,0.293-0.587,0.587-0.88,0.88H41.07    l-0.734,1.761l0.734,0.734c0,0.44,0,0.88,0,1.174l-0.734,0.734l0.734,1.761h1.027c0.293,0.293,0.587,0.587,0.88,0.88v1.027    l1.761,0.734l0.734-0.734c0.44,0,0.88,0,1.174,0l0.734,0.734l1.761-0.734v-1.027c0.293-0.293,0.587-0.587,0.88-0.88h1.027    l0.734-1.761L51.047,32.514z M45.178,34.128c-1.174-0.44-1.761-1.907-1.321-3.081s1.907-1.761,3.081-1.321    s1.761,1.907,1.321,3.081C47.819,33.981,46.352,34.568,45.178,34.128z"/></g></g><text x="0" y="79" fill="#000000" font-size="5px" font-weight="bold" font-family="'Helvetica Neue', Helvetica, Arial-Unicode, Arial, Sans-serif">Created by Arafat Uddin</text><text x="0" y="84" fill="#000000" font-size="5px" font-weight="bold" font-family="'Helvetica Neue', Helvetica, Arial-Unicode, Arial, Sans-serif">from the Noun Project</text></svg>